<svg xmlns="http://www.w3.org/2000/svg" xmlns:xlink="http://www.w3.org/1999/xlink" width="65" height="45.5" viewBox="0 0 65 45.5">
  <defs>
    <linearGradient id="linear-gradient" x1="0.5" x2="0.5" y2="0.438" gradientUnits="objectBoundingBox">
      <stop offset="0" stop-color="#e74c3c"/>
      <stop offset="1" stop-color="#74261e"/>
    </linearGradient>
    <filter id="G3SSI1" x="0" y="12.5" width="65" height="33" filterUnits="userSpaceOnUse">
      <feOffset dx="2" dy="1" input="SourceAlpha"/>
      <feGaussianBlur stdDeviation="1.5" result="blur"/>
      <feFlood flood-opacity="0.161"/>
      <feComposite operator="in" in2="blur"/>
      <feComposite in="SourceGraphic"/>
    </filter>
  </defs>
  <g id="Component_3_1" data-name="Component 3 – 1" transform="translate(2.5)">
    <g id="surface21457178" transform="translate(3 -9)">
      <path id="Path_1" data-name="Path 1" d="M16,9A16,16,0,1,0,32,25,16.016,16.016,0,0,0,16,9ZM34,9a15.912,15.912,0,0,0-7.109,1.668,16.629,16.629,0,0,1,1.66,1.43,14,14,0,1,1,0,25.8,16.63,16.63,0,0,1-1.66,1.43A16,16,0,1,0,34,9ZM16,11A14,14,0,1,1,2,25,13.987,13.987,0,0,1,16,11Zm0,2A12,12,0,1,0,28,25,12.013,12.013,0,0,0,16,13Zm18,0a11.73,11.73,0,0,0-4,.691A15.786,15.786,0,0,1,31.223,15.4,9.7,9.7,0,0,1,34,15a10,10,0,0,1,0,20,9.7,9.7,0,0,1-2.777-.4A15.786,15.786,0,0,1,30,36.309,11.73,11.73,0,0,0,34,37a12,12,0,0,0,0-24ZM16,15A10,10,0,1,1,6,25,9.984,9.984,0,0,1,16,15Zm0,2a8,8,0,1,0,8,8A8.016,8.016,0,0,0,16,17Zm18,0a8.047,8.047,0,0,0-1.777.2A16.014,16.014,0,0,1,33,19.09,5.61,5.61,0,0,1,34,19a6,6,0,0,1,0,12,5.6,5.6,0,0,1-1-.09,16.014,16.014,0,0,1-.777,1.891A8,8,0,1,0,34,17ZM16,19a6,6,0,1,1-6,6A5.987,5.987,0,0,1,16,19Zm0,2a4,4,0,1,0,4,4A4.013,4.013,0,0,0,16,21Zm18,0a3.472,3.472,0,0,0-.449.027,14.784,14.784,0,0,1,.34,1.98A.482.482,0,0,1,34,23a2,2,0,0,1,0,4,.325.325,0,0,1-.109-.012,14.573,14.573,0,0,1-.34,1.98A2.9,2.9,0,0,0,34,29a4,4,0,0,0,0-8ZM16,23a2,2,0,1,1-2,2A1.984,1.984,0,0,1,16,23Zm0,0" fill="url(#linear-gradient)"/>
    </g>
    <g transform="matrix(1, 0, 0, 1, -2.5, 0)" filter="url(#G3SSI1)">
      <text id="G3SSI1-2" data-name="G3SSI1" transform="translate(30.5 36)" fill="#fff" font-size="20" font-family="Impact" opacity="0.95"><tspan x="-27.847" y="0">G3SSI1</tspan></text>
    </g>
  </g>
</svg>
